<?xml version="1.0" encoding="UTF-8" standalone="no"?>
<!DOCTYPE svg PUBLIC "-//W3C//DTD SVG 1.1//EN" "http://www.w3.org/Graphics/SVG/1.1/DTD/svg11.dtd">
<svg width="100%" height="100%" viewBox="0 0 3284 1024" version="1.1" xmlns="http://www.w3.org/2000/svg" xmlns:xlink="http://www.w3.org/1999/xlink" xml:space="preserve" xmlns:serif="http://www.serif.com/" style="fill-rule:evenodd;clip-rule:evenodd;stroke-linejoin:round;stroke-miterlimit:2;">
    <g transform="matrix(1,0,0,1,0,-5963)">
        <g id="Full-Sign---TP---Black" serif:id="Full Sign - TP &amp; Black" transform="matrix(3.20703,0,0,1,0,5963)">
            <rect x="0" y="0" width="1024" height="1024" style="fill:none;"/>
            <g transform="matrix(-0.238095,0,0,0.763579,904.213,119.335)">
                <circle cx="789.757" cy="514.243" r="50.757" style="fill:rgb(63,235,160);"/>
            </g>
            <g transform="matrix(0.395467,0,0,1.26827,-114.438,-1428.84)">
                <g transform="matrix(288,0,0,288,1474.64,1643.5)">
                    <path d="M0.464,0.018C0.583,0.018 0.684,-0.03 0.759,-0.098L0.64,-0.257C0.589,-0.211 0.53,-0.18 0.464,-0.18C0.352,-0.18 0.246,-0.27 0.246,-0.392C0.246,-0.513 0.347,-0.605 0.468,-0.605C0.526,-0.605 0.59,-0.576 0.639,-0.532L0.759,-0.686C0.678,-0.76 0.569,-0.804 0.468,-0.806C0.223,-0.806 0.034,-0.626 0.034,-0.394C0.034,-0.146 0.242,0.018 0.464,0.018Z" style="fill:rgb(7,7,7);fill-rule:nonzero;"/>
                </g>
                <g transform="matrix(288,0,0,288,1696.2,1643.5)">
                    <rect x="0.068" y="-0.787" width="0.209" height="0.787" style="fill:rgb(7,7,7);fill-rule:nonzero;"/>
                </g>
                <g transform="matrix(288,0,0,288,1792.88,1643.5)">
                    <path d="M0.733,-0L0.522,-0.316C0.6,-0.351 0.659,-0.433 0.659,-0.531C0.659,-0.672 0.537,-0.787 0.367,-0.787L0.068,-0.787L0.069,-0L0.278,-0L0.278,-0.342L0.489,-0L0.733,-0ZM0.277,-0.599L0.363,-0.599C0.407,-0.599 0.448,-0.569 0.448,-0.52C0.448,-0.472 0.407,-0.44 0.363,-0.441L0.277,-0.441L0.277,-0.599Z" style="fill:rgb(7,7,7);fill-rule:nonzero;"/>
                </g>
                <g transform="matrix(-288,-3.5083e-14,3.4639e-14,-288,2231.56,1416.53)">
                    <path d="M0.464,0.018C0.583,0.018 0.684,-0.03 0.759,-0.098L0.64,-0.257C0.589,-0.211 0.53,-0.18 0.464,-0.18C0.352,-0.18 0.246,-0.27 0.246,-0.392C0.246,-0.513 0.347,-0.605 0.468,-0.605C0.526,-0.605 0.59,-0.576 0.639,-0.532L0.759,-0.686C0.678,-0.76 0.569,-0.804 0.468,-0.806C0.223,-0.806 0.034,-0.626 0.034,-0.394C0.034,-0.146 0.242,0.018 0.464,0.018Z" style="fill:rgb(7,7,7);fill-rule:nonzero;"/>
                </g>
                <g transform="matrix(288,0,0,288,2224.74,1643.5)">
                    <path d="M0.388,0.022C0.568,0.022 0.715,-0.105 0.715,-0.286L0.715,-0.787L0.504,-0.787L0.504,-0.287C0.504,-0.222 0.447,-0.178 0.388,-0.178C0.328,-0.178 0.272,-0.221 0.272,-0.287L0.272,-0.787L0.062,-0.787L0.062,-0.286C0.062,-0.105 0.208,0.022 0.388,0.022Z" style="fill:rgb(7,7,7);fill-rule:nonzero;"/>
                </g>
                <g transform="matrix(288,0,0,288,2445.46,1643.5)">
                    <rect x="0.068" y="-0.787" width="0.209" height="0.787" style="fill:rgb(7,7,7);fill-rule:nonzero;"/>
                </g>
                <g transform="matrix(288,0,0,288,2542.14,1643.5)">
                    <path d="M0.607,-0.787L0.021,-0.787L0.021,-0.592L0.21,-0.592L0.21,-0L0.419,-0L0.419,-0.592L0.607,-0.592L0.607,-0.787Z" style="fill:rgb(7,7,7);fill-rule:nonzero;"/>
                </g>
            </g>
            <g transform="matrix(0.311815,0,0,0.20002,0,58.2128)">
                <clipPath id="_clip1">
                    <path d="M704.662,3023C794.203,3023 862.67,2697.64 862.67,2269.6C862.67,1837.99 794.203,1510.85 704.84,1510.85C615.478,1510.85 547.011,1837.99 547.011,2269.6C547.011,2697.64 615.299,3023 704.662,3023ZM1336.39,3023C1425.93,3023 1494.4,2697.64 1494.4,2269.6C1494.4,1837.99 1425.93,1510.85 1336.57,1510.85C1247.2,1510.85 1178.74,1837.99 1178.74,2269.6C1178.74,2697.64 1247.03,3023 1336.39,3023ZM1068.42,1547.4L1068.42,2248.2L921.098,1534.92L896.493,1534.92L896.493,2987.33L972.805,2987.33L972.805,2284.75L1120.66,3000.71L1144.91,3000.71L1144.91,1547.4L1068.42,1547.4ZM482.52,1535.81L359.103,2381.05L235.686,1535.81L205.019,1535.81L205.019,2986.44L281.331,2986.44L281.331,2416.71L358.924,2962.37L359.459,2962.37L436.875,2416.71L436.875,2986.44L513.187,2986.44L513.187,1535.81L482.52,1535.81ZM704.84,2658.42C659.176,2658.42 624.214,2488.09 624.214,2266.92C624.214,2044.87 659.176,1873.64 704.84,1873.64C750.504,1873.64 785.466,2044.87 785.466,2266.92C785.466,2488.09 750.504,2658.42 704.84,2658.42ZM1336.57,2658.42C1290.9,2658.42 1255.94,2488.09 1255.94,2266.92C1255.94,2044.87 1290.9,1873.64 1336.57,1873.64C1382.23,1873.64 1417.19,2044.87 1417.19,2266.92C1417.19,2488.09 1382.23,2658.42 1336.57,2658.42Z" clip-rule="nonzero"/>
                </clipPath>
                <g clip-path="url(#_clip1)">
                    <rect x="205.019" y="1515.31" width="1289.38" height="301.569" style="fill:white;"/>
                    <rect x="205.019" y="1515.31" width="1289.38" height="301.569" style="fill:rgb(7,7,7);"/>
                </g>
            </g>
            <g transform="matrix(0.311815,0,0,0.20002,0,178.392)">
                <clipPath id="_clip2">
                    <path d="M704.662,2422.16C794.203,2422.16 862.67,2096.81 862.67,1668.77C862.67,1237.15 794.203,910.013 704.84,910.013C615.478,910.013 547.011,1237.15 547.011,1668.77C547.011,2096.81 615.299,2422.16 704.662,2422.16ZM1336.39,2422.16C1425.93,2422.16 1494.4,2096.81 1494.4,1668.77C1494.4,1237.15 1425.93,910.013 1336.57,910.013C1247.2,910.013 1178.74,1237.15 1178.74,1668.77C1178.74,2096.81 1247.03,2422.16 1336.39,2422.16ZM1068.42,946.572L1068.42,1647.37L921.098,934.088L896.493,934.088L896.493,2386.5L972.805,2386.5L972.805,1683.92L1120.66,2399.87L1144.91,2399.87L1144.91,946.572L1068.42,946.572ZM482.52,934.98L359.103,1780.21L235.686,934.98L205.019,934.98L205.019,2385.61L281.331,2385.61L281.331,1815.88L358.924,2361.53L359.459,2361.53L436.875,1815.88L436.875,2385.61L513.187,2385.61L513.187,934.98L482.52,934.98ZM704.84,2057.59C659.176,2057.59 624.214,1887.25 624.214,1666.09C624.214,1444.04 659.176,1272.81 704.84,1272.81C750.504,1272.81 785.466,1444.04 785.466,1666.09C785.466,1887.25 750.504,2057.59 704.84,2057.59ZM1336.57,2057.59C1290.9,2057.59 1255.94,1887.25 1255.94,1666.09C1255.94,1444.04 1290.9,1272.81 1336.57,1272.81C1382.23,1272.81 1417.19,1444.04 1417.19,1666.09C1417.19,1887.25 1382.23,2057.59 1336.57,2057.59Z" clip-rule="nonzero"/>
                </clipPath>
                <g clip-path="url(#_clip2)">
                    <rect x="205.019" y="1515.31" width="1289.38" height="301.569" style="fill:white;"/>
                    <rect x="205.019" y="1515.31" width="1289.38" height="301.569" style="fill:rgb(7,7,7);"/>
                </g>
            </g>
            <g transform="matrix(0.311815,0,0,0.20002,0,299.462)">
                <clipPath id="_clip3">
                    <path d="M704.662,1816.87C794.203,1816.87 862.67,1491.52 862.67,1063.47C862.67,631.863 794.203,304.722 704.84,304.722C615.478,304.722 547.011,631.863 547.011,1063.47C547.011,1491.52 615.299,1816.87 704.662,1816.87ZM1336.39,1816.87C1425.93,1816.87 1494.4,1491.52 1494.4,1063.47C1494.4,631.863 1425.93,304.722 1336.57,304.722C1247.2,304.722 1178.74,631.863 1178.74,1063.47C1178.74,1491.52 1247.03,1816.87 1336.39,1816.87ZM1068.42,341.28L1068.42,1042.07L921.098,328.797L896.493,328.797L896.493,1781.21L972.805,1781.21L972.805,1078.63L1120.66,1794.58L1144.91,1794.58L1144.91,341.28L1068.42,341.28ZM482.52,329.689L359.103,1174.92L235.686,329.689L205.019,329.689L205.019,1780.32L281.331,1780.32L281.331,1210.59L358.924,1756.24L359.459,1756.24L436.875,1210.59L436.875,1780.32L513.187,1780.32L513.187,329.689L482.52,329.689ZM704.84,1452.29C659.176,1452.29 624.214,1281.96 624.214,1060.8C624.214,838.745 659.176,667.518 704.84,667.518C750.504,667.518 785.466,838.745 785.466,1060.8C785.466,1281.96 750.504,1452.29 704.84,1452.29ZM1336.57,1452.29C1290.9,1452.29 1255.94,1281.96 1255.94,1060.8C1255.94,838.745 1290.9,667.518 1336.57,667.518C1382.23,667.518 1417.19,838.745 1417.19,1060.8C1417.19,1281.96 1382.23,1452.29 1336.57,1452.29Z" clip-rule="nonzero"/>
                </clipPath>
                <g clip-path="url(#_clip3)">
                    <rect x="205.019" y="1515.31" width="1289.38" height="301.569" style="fill:white;"/>
                    <rect x="205.019" y="1515.31" width="1289.38" height="301.569" style="fill:rgb(7,7,7);"/>
                </g>
            </g>
            <g transform="matrix(0.311815,0,0,1,0,-1154)">
                <rect x="205.019" y="1520" width="307.981" height="56" style="fill:rgb(7,7,7);"/>
                <path d="" style="fill:white;"/>
            </g>
            <g transform="matrix(0.311815,0,0,1.07143,0,-1146.93)">
                <rect x="205.019" y="1520" width="307.981" height="56" style="fill:rgb(7,7,7);"/>
                <path d="" style="fill:white;"/>
            </g>
        </g>
    </g>
</svg>
