<?xml version="1.0" encoding="UTF-8" standalone="no"?>
<!DOCTYPE svg PUBLIC "-//W3C//DTD SVG 1.1//EN" "http://www.w3.org/Graphics/SVG/1.1/DTD/svg11.dtd">
<svg width="100%" height="100%" viewBox="0 0 1024 1024" version="1.1" xmlns="http://www.w3.org/2000/svg" xmlns:xlink="http://www.w3.org/1999/xlink" xml:space="preserve" xmlns:serif="http://www.serif.com/" style="fill-rule:evenodd;clip-rule:evenodd;stroke-linejoin:round;stroke-miterlimit:2;">
    <g transform="matrix(1,0,0,1,-1130,-1194)">
        <g id="Short-Sign--C----TP---White" serif:id="Short Sign (C) - TP &amp; White" transform="matrix(1,0,0,1,1130,1194)">
            <rect x="0" y="0" width="1024" height="1024" style="fill:none;"/>
            <g transform="matrix(1,0,0,1,27,-3.41061e-13)">
                <g transform="matrix(-800,0,0,800,829.188,827.234)">
                    <path d="M0.464,0.018C0.583,0.018 0.684,-0.03 0.759,-0.098L0.64,-0.257C0.589,-0.211 0.53,-0.18 0.464,-0.18C0.352,-0.18 0.246,-0.27 0.246,-0.392C0.246,-0.513 0.347,-0.605 0.468,-0.605C0.526,-0.605 0.59,-0.576 0.639,-0.532L0.759,-0.686C0.678,-0.76 0.569,-0.804 0.468,-0.806C0.223,-0.806 0.034,-0.626 0.034,-0.394C0.034,-0.146 0.242,0.018 0.464,0.018Z" style="fill:white;fill-rule:nonzero;"/>
                </g>
                <g transform="matrix(-1.75852,0,0,1.75852,1846.3,-392.306)">
                    <circle cx="789.757" cy="514.243" r="50.757" style="fill:rgb(63,235,160);"/>
                </g>
            </g>
        </g>
    </g>
</svg>
